<svg xmlns="http://www.w3.org/2000/svg" viewBox="0 0 2048 2048" width="2048" height="2048" role="img" aria-label="WODEX">
<title>WODEX</title>
<g transform="translate(0.000000,2048.000000) scale(0.100000,-0.100000)"
fill="#000000" stroke="none">

<path d="M17350 16502 c-184 -93 -290 -159 -484 -302 -63 -46 -100 -75 -211
-167 -35 -29 -66 -53 -69 -53 -3 0 -61 -55 -128 -123 -68 -67 -132 -130 -143
-139 -11 -9 -26 -23 -33 -30 -62 -64 -102 -100 -102 -93 0 8 25 36 236 257 45
48 85 95 88 105 4 10 34 38 68 63 33 25 127 110 207 190 80 80 161 156 179
168 31 23 42 42 22 42 -13 0 -320 -205 -376 -251 -23 -19 -74 -59 -114 -89
-41 -30 -125 -104 -189 -165 -178 -169 -494 -493 -511 -523 -8 -15 -55 -68
-105 -118 -49 -49 -108 -117 -130 -150 -22 -32 -62 -83 -88 -113 -27 -30 -72
-89 -100 -130 -28 -42 -77 -107 -109 -145 -32 -39 -58 -75 -58 -82 0 -6 -7
-17 -16 -24 -8 -8 -22 -29 -29 -47 -8 -19 -32 -54 -52 -77 -21 -24 -60 -82
-86 -129 -27 -47 -72 -118 -101 -158 -29 -39 -65 -96 -80 -125 -15 -30 -47
-80 -70 -112 -24 -31 -50 -76 -59 -99 -9 -24 -34 -69 -56 -100 -44 -66 -91
-156 -91 -176 0 -7 -8 -22 -18 -33 -16 -18 -53 -89 -74 -144 -6 -14 -16 -36
-24 -50 -43 -80 -164 -331 -164 -342 0 -5 -24 -60 -54 -121 -30 -62 -69 -145
-86 -186 -17 -40 -47 -108 -66 -150 -19 -42 -39 -85 -43 -96 -5 -11 -14 -33
-21 -50 -7 -16 -16 -39 -20 -50 -58 -147 -104 -266 -115 -290 -7 -16 -24 -57
-38 -90 -14 -33 -38 -94 -52 -135 -15 -41 -32 -88 -39 -105 -8 -16 -22 -57
-31 -90 -10 -33 -22 -64 -27 -69 -4 -6 -8 -16 -8 -23 0 -12 -13 -45 -60 -148
-10 -22 -21 -51 -23 -65 -3 -14 -28 -90 -56 -170 -29 -80 -63 -179 -77 -220
-14 -41 -38 -111 -53 -155 -16 -44 -48 -141 -71 -215 -23 -74 -46 -144 -50
-155 -5 -11 -22 -67 -40 -125 -17 -58 -38 -123 -46 -144 -20 -52 -97 -289
-114 -346 -7 -25 -16 -54 -20 -65 -4 -11 -31 -94 -60 -185 -28 -91 -55 -176
-60 -190 -4 -14 -13 -45 -20 -70 -7 -25 -16 -56 -20 -70 -4 -14 -13 -45 -20
-70 -7 -25 -21 -70 -31 -100 -10 -30 -32 -104 -49 -165 -17 -60 -44 -149 -61
-197 -16 -48 -29 -95 -29 -103 0 -8 -4 -23 -9 -33 -5 -9 -24 -64 -41 -122 -18
-58 -40 -125 -48 -150 -8 -25 -18 -58 -23 -75 -18 -66 -31 -111 -39 -140 -9
-30 -14 -49 -44 -157 -9 -32 -23 -84 -32 -115 -9 -32 -20 -71 -24 -88 -9 -31
-17 -58 -43 -155 -41 -147 -77 -292 -88 -357 -8 -40 -16 -73 -20 -73 -12 0
-28 77 -33 160 -3 47 -8 175 -11 285 -4 110 -9 223 -12 250 -3 28 -6 61 -6 75
-2 74 14 674 18 680 5 7 15 151 40 530 14 211 31 388 55 575 6 44 15 116 20
160 6 44 24 161 40 260 17 99 36 207 41 240 5 33 14 83 18 110 5 28 16 95 25
150 8 55 20 125 25 155 6 30 20 114 31 185 31 196 41 255 50 310 5 28 14 77
20 110 5 33 17 96 26 140 9 44 19 91 21 105 3 14 12 59 20 100 9 41 19 95 24
120 18 107 29 168 40 215 5 28 14 73 19 100 16 101 40 241 50 290 25 136 35
217 34 295 0 73 -5 95 -33 160 -71 162 -103 202 -204 256 -41 22 -78 53 -121
104 -61 73 -98 98 -256 176 -70 34 -137 42 -181 20 -43 -21 -67 -20 -120 6
-40 20 -60 23 -199 23 -141 1 -161 3 -226 27 -65 24 -72 24 -100 10 -46 -24
-102 -71 -109 -92 -3 -10 -28 -32 -55 -49 -27 -17 -56 -44 -64 -60 -9 -16 -39
-43 -68 -59 -85 -49 -113 -84 -112 -140 0 -27 8 -59 18 -74 17 -26 17 -30 -8
-107 -14 -44 -26 -87 -26 -96 0 -8 -8 -23 -17 -33 -33 -33 -103 -121 -103
-127 0 -4 -13 -25 -28 -48 -15 -23 -33 -53 -40 -67 -7 -14 -40 -59 -72 -100
-33 -41 -60 -79 -60 -85 0 -5 -9 -21 -20 -35 -11 -14 -20 -31 -20 -38 0 -7
-16 -29 -35 -49 -19 -20 -47 -57 -62 -82 -14 -25 -49 -79 -77 -120 -28 -40
-62 -93 -76 -117 -14 -24 -50 -80 -81 -126 -31 -46 -78 -123 -104 -173 -26
-49 -62 -110 -79 -134 -40 -57 -51 -74 -124 -203 -11 -18 -42 -68 -70 -110
-29 -42 -52 -79 -52 -83 0 -3 -22 -38 -48 -78 -57 -85 -102 -161 -119 -201 -7
-15 -35 -59 -63 -97 -27 -38 -50 -71 -50 -75 0 -3 -13 -25 -30 -49 -16 -24
-30 -46 -30 -50 0 -4 -13 -26 -30 -50 -16 -24 -30 -48 -30 -53 0 -5 -7 -15
-15 -22 -8 -7 -21 -24 -28 -39 -8 -14 -33 -56 -56 -93 -22 -37 -41 -73 -41
-81 0 -7 -22 -45 -50 -85 -27 -40 -50 -74 -50 -76 0 -4 -44 -84 -152 -276 -14
-25 -36 -63 -48 -85 -26 -44 -52 -92 -130 -240 -29 -55 -60 -111 -69 -125 -9
-14 -23 -38 -31 -55 -8 -16 -22 -41 -31 -55 -9 -14 -45 -79 -79 -145 -34 -66
-66 -124 -70 -130 -9 -11 -38 -63 -83 -145 -16 -30 -34 -59 -38 -64 -5 -6 -9
-15 -9 -22 0 -7 -17 -41 -39 -75 -39 -66 -96 -174 -127 -244 -10 -22 -26 -52
-35 -66 -30 -44 -199 -371 -199 -386 0 -3 -13 -35 -30 -70 -17 -34 -30 -67
-30 -73 0 -5 -9 -24 -20 -42 l-20 -33 0 27 c0 15 4 37 10 50 5 13 17 77 26
143 8 66 19 147 24 180 12 86 36 243 61 388 5 34 14 91 19 127 12 79 23 142
50 285 11 61 25 137 30 170 5 33 15 85 21 115 6 30 15 75 19 100 16 90 30 171
39 228 10 61 67 383 83 467 5 28 13 75 18 105 11 66 26 147 40 215 6 28 15 73
20 100 6 28 19 93 30 145 12 52 23 106 26 120 3 14 14 66 24 115 10 50 21 104
25 120 3 17 10 46 15 65 5 19 14 58 20 85 7 28 16 68 22 90 5 22 13 58 18 80
8 38 16 67 40 165 6 22 15 59 20 83 19 74 28 111 40 152 15 53 28 104 35 140
4 17 10 39 15 50 5 11 11 34 15 50 7 36 20 87 35 140 38 133 58 280 42 306 -7
11 -7 29 -1 55 33 126 47 184 59 239 13 57 27 113 40 160 12 43 23 85 40 155
6 25 15 61 20 80 13 52 30 120 40 165 5 22 13 58 18 80 23 98 57 274 72 375 7
41 15 95 20 120 5 25 13 83 19 130 6 47 16 122 21 168 14 107 14 376 -1 455
-22 123 -52 252 -61 262 -4 5 -8 21 -8 36 0 15 -4 31 -10 34 -5 3 -10 14 -10
23 0 30 -117 258 -181 355 -66 97 -277 317 -359 373 -41 28 -144 83 -195 105
-11 5 -47 20 -80 35 -69 30 -102 40 -205 59 -98 19 -351 19 -455 0 -134 -23
-239 -46 -257 -56 -9 -5 -29 -9 -45 -9 -16 0 -53 -9 -83 -20 -30 -11 -61 -20
-68 -20 -7 0 -32 -9 -54 -20 -23 -11 -45 -20 -50 -20 -10 0 -76 -29 -183 -80
-44 -21 -96 -45 -115 -54 -59 -26 -167 -89 -223 -128 -28 -21 -95 -66 -147
-99 -52 -34 -113 -77 -135 -95 -22 -19 -89 -73 -149 -121 -61 -48 -135 -110
-165 -137 -135 -125 -480 -491 -491 -521 -3 -8 -34 -44 -71 -82 -36 -37 -76
-84 -89 -103 -14 -19 -32 -44 -42 -54 -10 -11 -18 -24 -18 -29 0 -5 -30 -49
-67 -96 -85 -108 -125 -163 -166 -225 -44 -68 -41 -64 -137 -211 -47 -71 -101
-161 -119 -200 -19 -38 -47 -89 -63 -112 -15 -23 -28 -46 -28 -51 0 -5 -9 -17
-20 -27 -11 -10 -20 -24 -20 -32 0 -7 -4 -21 -9 -31 -4 -9 -20 -42 -35 -72
-14 -30 -40 -77 -56 -105 -17 -27 -33 -57 -37 -65 -3 -8 -30 -66 -59 -129 -46
-97 -74 -159 -115 -256 -4 -11 -26 -60 -49 -108 -22 -49 -40 -93 -40 -98 0 -6
-9 -29 -20 -51 -11 -23 -20 -49 -20 -58 0 -9 -4 -20 -8 -26 -4 -5 -14 -27 -21
-49 -12 -39 -17 -53 -40 -107 -25 -61 -61 -162 -68 -193 -3 -11 -8 -29 -13
-40 -19 -51 -70 -215 -70 -229 0 -9 -4 -24 -9 -34 -10 -16 -61 -220 -83 -327
-5 -27 -14 -66 -18 -85 -46 -189 -90 -697 -78 -915 10 -200 22 -272 77 -446
28 -88 43 -123 112 -248 24 -44 203 -231 221 -231 5 0 35 -18 65 -40 31 -22
64 -40 73 -40 9 0 26 -11 37 -24 37 -43 216 -82 293 -65 24 6 55 7 70 4 20 -4
36 2 66 26 46 36 107 69 129 69 9 0 36 9 61 20 24 12 49 18 55 15 13 -8 133
94 178 151 34 45 36 71 3 41 -10 -10 -21 -17 -24 -17 -13 0 -14 51 -2 61 7 6
14 20 16 32 2 14 11 23 25 25 28 4 31 22 4 22 -10 0 -22 -7 -25 -16 -3 -8 -11
-12 -17 -9 -6 5 -4 12 8 20 10 7 15 17 11 21 -4 4 -3 13 3 20 7 9 7 19 -1 34
-15 27 -6 50 18 50 27 0 80 69 61 81 -11 6 -9 12 7 31 11 13 21 39 23 58 1 19
4 43 7 52 10 32 -31 42 -121 29 l-82 -13 -61 31 c-34 17 -68 31 -75 31 -29 0
-67 75 -67 132 0 15 -4 30 -10 33 -14 9 -12 118 4 201 7 39 11 85 8 102 -2 18
0 38 5 45 5 6 20 39 33 72 13 33 27 64 32 70 4 5 8 14 8 20 0 20 -53 -51 -76
-102 -25 -57 -50 -72 -40 -25 4 15 10 52 15 82 5 30 19 98 31 150 13 52 27
113 32 135 16 72 33 135 58 220 5 17 17 62 28 100 11 39 29 97 41 130 12 33
29 85 37 115 18 70 29 100 65 178 16 35 29 66 29 70 0 4 18 43 40 86 22 43 40
86 40 95 0 10 4 21 8 26 5 6 15 26 22 45 13 34 82 187 101 222 5 10 9 25 9 33
0 8 17 50 39 93 21 42 49 104 61 137 13 33 33 76 43 95 19 33 35 64 77 150 9
19 27 52 38 73 12 20 32 54 43 75 12 20 30 49 40 64 11 14 19 29 19 33 0 4 8
19 19 33 10 15 42 72 71 127 56 107 168 293 216 361 16 23 49 70 73 105 162
233 449 563 638 732 150 134 391 310 476 346 119 51 264 48 306 -6 35 -44 45
-115 31 -227 -12 -104 -63 -394 -79 -456 -6 -19 -15 -57 -21 -85 -11 -48 -19
-82 -40 -162 -10 -40 -38 -162 -65 -278 -9 -38 -26 -113 -39 -165 -13 -52 -28
-117 -34 -145 -9 -41 -59 -260 -93 -405 -4 -19 -13 -55 -18 -80 -6 -25 -16
-63 -22 -85 -6 -22 -14 -58 -19 -80 -10 -46 -55 -233 -70 -285 -5 -19 -14 -57
-20 -85 -6 -27 -22 -97 -36 -154 -14 -58 -29 -123 -34 -145 -4 -23 -27 -126
-50 -231 -23 -104 -52 -248 -66 -320 -13 -71 -28 -143 -33 -160 -5 -16 -12
-52 -16 -80 -4 -27 -15 -95 -26 -150 -33 -165 -131 -756 -169 -1010 -5 -33
-18 -116 -29 -185 -27 -169 -99 -651 -99 -670 0 -8 -8 -60 -16 -115 -28 -177
-56 -420 -56 -479 0 -31 -4 -76 -9 -99 -10 -44 -23 -188 -42 -467 -6 -91 -13
-181 -15 -200 -11 -86 -24 -243 -29 -335 -3 -55 -10 -127 -15 -160 -5 -33 -12
-125 -15 -205 -3 -80 -11 -203 -17 -275 -18 -185 -17 -955 1 -1059 14 -85 36
-179 50 -211 20 -49 31 -95 31 -136 0 -41 9 -62 52 -121 10 -14 9 -20 -5 -36
-23 -25 -22 -34 13 -67 23 -22 30 -38 30 -66 0 -30 6 -42 29 -58 28 -20 69
-87 77 -124 5 -27 78 -121 116 -150 30 -23 53 -35 188 -95 96 -43 124 -52 156
-52 18 0 35 -4 39 -10 3 -5 34 -8 69 -7 60 2 65 0 105 -36 37 -34 46 -37 74
-31 18 4 46 9 62 10 63 5 163 36 250 78 82 39 101 55 211 167 67 68 131 143
142 165 12 23 27 48 35 55 7 8 28 41 46 74 18 33 37 65 41 70 12 15 69 117 81
145 6 14 16 34 22 45 6 11 33 62 60 114 27 52 53 102 58 110 32 61 189 386
189 394 0 5 15 41 34 80 18 40 55 122 81 182 49 114 112 252 146 318 10 22 19
43 19 48 0 12 112 263 182 409 145 300 234 489 248 525 20 51 73 171 117 265
19 41 43 93 53 115 10 22 37 79 59 127 23 47 41 90 41 96 0 5 34 78 76 163
101 203 138 282 164 351 12 32 36 79 53 105 43 69 120 230 133 283 7 25 9 51
4 59 -10 19 5 60 52 143 21 37 47 83 58 102 11 20 30 53 42 74 24 42 38 70 64
127 10 22 30 58 45 80 38 58 63 100 107 185 21 41 51 98 67 125 15 28 38 68
50 90 12 22 34 60 49 85 34 59 176 342 176 352 0 4 -4 8 -10 8 -5 0 -10 -6
-10 -14 0 -21 -51 -37 -68 -21 -7 6 12 35 24 35 7 0 24 15 38 33 33 44 146
264 146 285 0 9 8 31 18 47 10 17 37 65 61 107 23 43 64 111 91 153 28 41 50
77 50 81 0 3 8 18 19 32 10 15 31 52 47 82 32 62 44 48 20 -23 -8 -24 -24 -84
-35 -133 -12 -49 -25 -105 -30 -124 -9 -33 -29 -159 -52 -320 -6 -41 -14 -95
-19 -120 -5 -25 -18 -119 -30 -210 -11 -91 -24 -187 -30 -215 -5 -27 -14 -97
-20 -155 -16 -146 -29 -262 -40 -350 -19 -146 -43 -396 -46 -485 -2 -49 -8
-166 -14 -260 -5 -93 -15 -258 -21 -365 -6 -107 -12 -220 -14 -250 -8 -113 -9
-398 -2 -500 4 -58 9 -132 11 -165 12 -194 19 -307 22 -374 2 -42 6 -94 9
-116 4 -22 13 -87 21 -145 8 -58 19 -134 24 -170 6 -36 13 -89 15 -118 2 -30
8 -75 14 -100 5 -26 17 -85 26 -132 9 -47 25 -111 35 -142 11 -31 17 -64 14
-73 -4 -8 -1 -22 6 -30 7 -9 16 -32 21 -53 26 -124 35 -147 77 -214 16 -24 22
-44 17 -58 -4 -11 -3 -26 2 -33 5 -7 24 -48 42 -92 80 -193 106 -235 143 -235
20 0 23 10 9 26 -5 5 -14 25 -19 44 -5 19 -13 44 -18 54 -5 14 -4 17 5 12 6
-4 28 -42 48 -84 20 -42 47 -90 59 -107 12 -16 24 -39 28 -50 5 -18 220 -242
322 -336 21 -20 59 -44 84 -53 25 -10 52 -24 60 -31 20 -18 107 -55 130 -55
10 0 34 -9 52 -20 18 -10 62 -26 98 -34 36 -9 90 -24 120 -33 42 -14 87 -18
187 -18 122 0 133 2 155 22 13 13 37 23 52 23 16 0 48 16 79 39 44 32 58 38
88 34 32 -4 43 0 80 34 151 133 219 209 270 298 40 71 78 150 79 163 0 7 4 20
10 30 14 24 58 144 82 222 22 71 26 89 58 230 11 52 26 115 31 140 6 25 14 63
19 85 28 128 88 344 110 400 12 31 41 126 50 165 5 19 13 51 19 70 5 19 24 89
41 155 17 66 36 136 41 155 6 19 14 51 19 70 5 19 13 52 19 73 6 20 16 54 22
75 6 20 14 53 19 72 5 19 13 52 19 73 6 20 15 52 20 70 8 30 56 181 101 323
11 34 20 69 20 78 0 9 4 24 9 34 5 9 19 51 31 92 12 41 25 86 30 100 4 14 13
45 20 70 7 25 16 56 20 70 4 14 13 45 20 70 25 91 30 106 48 165 11 33 25 80
32 105 6 25 16 53 21 62 5 10 9 25 9 33 0 8 4 23 9 33 5 9 19 51 32 92 12 41
26 84 30 95 4 11 13 38 20 60 6 22 15 49 19 60 4 11 14 40 21 65 7 25 16 50
20 55 5 6 11 31 14 55 11 79 65 251 87 274 4 6 8 29 8 51 0 23 3 45 7 48 10
11 52 140 53 163 0 11 4 24 8 30 5 5 14 29 21 54 7 25 17 54 22 65 7 17 29 82
92 265 9 25 21 65 28 90 6 25 24 79 39 120 15 41 33 93 40 115 7 22 29 76 50
120 40 85 60 141 60 168 0 10 4 25 10 35 28 51 92 202 120 283 17 52 37 108
45 124 33 74 65 160 65 176 0 10 5 21 10 24 6 3 10 15 10 25 0 11 11 43 24 72
55 123 69 156 86 208 10 30 25 72 34 92 18 42 21 88 6 88 -5 0 -10 -8 -11 -17
0 -10 -25 -63 -55 -118 -69 -128 -298 -592 -354 -720 -45 -102 -73 -155 -81
-155 -13 0 -14 -3 37 116 25 60 49 123 53 140 5 18 16 46 25 64 9 18 16 48 16
65 0 18 8 43 19 56 29 37 56 90 70 139 14 45 48 124 75 170 8 14 20 44 27 67
7 24 20 55 30 70 10 16 23 35 29 43 5 8 19 38 31 65 67 156 77 176 121 255 52
92 84 161 108 230 7 19 16 44 20 55 4 11 18 47 30 80 12 33 31 79 41 102 11
24 19 52 19 62 0 11 5 23 10 26 6 3 10 15 10 26 0 10 8 38 18 62 11 23 24 60
31 82 7 22 16 49 21 60 4 11 19 47 33 80 13 33 33 87 43 120 20 67 22 73 193
415 154 306 144 286 139 301 -2 7 -18 -14 -34 -47 -17 -32 -46 -86 -64 -119
-60 -106 -217 -413 -334 -652 -63 -128 -124 -245 -136 -260 l-22 -28 7 25 c4
14 31 75 60 135 28 61 59 128 69 150 9 22 69 143 132 269 87 171 114 235 109
253 -4 17 3 36 23 66 16 23 51 85 79 137 56 108 67 127 150 265 168 278 207
342 225 368 20 28 18 51 -2 31 -6 -6 -57 -79 -113 -162 -210 -310 -252 -371
-264 -376 -21 -9 1 34 95 184 55 86 131 214 161 270 23 43 59 100 71 110 12
12 31 52 26 58 -3 3 -7 3 -9 1 -51 -64 -216 -293 -324 -447 -41 -60 -265 -404
-283 -437 -54 -96 -63 -110 -86 -144 -26 -38 -33 -32 -10 9 56 103 80 148 90
165 34 62 244 393 335 530 59 88 119 180 134 205 15 25 50 74 77 110 27 36 58
81 69 100 10 19 62 80 115 135 53 55 96 103 96 107 0 14 70 101 149 184 42 45
86 101 98 125 12 24 38 60 59 79 52 50 321 351 338 379 26 41 -49 -25 -232
-204 -84 -82 -157 -151 -163 -153 -24 -9 -1 20 100 122 59 61 135 140 167 176
33 36 80 85 106 109 27 24 49 55 53 72 4 16 11 31 16 34 5 4 9 10 9 16 0 21
-20 6 -54 -41 -20 -27 -42 -50 -50 -50 -8 0 -53 -42 -99 -92 -71 -77 -87 -90
-93 -75 -5 14 5 30 37 63 35 35 39 44 24 44 -11 0 -57 -38 -107 -87 -48 -48
-90 -84 -93 -81 -3 3 46 61 109 129 67 72 114 130 111 138 -7 17 134 166 199
211 87 59 186 135 186 143 0 16 -34 5 -76 -24 -30 -21 -51 -28 -65 -24 -12 4
-27 1 -37 -8 -9 -8 -28 -17 -42 -20 -14 -4 -52 -27 -85 -52 -65 -49 -123 -80
-132 -71 -3 3 19 29 51 57 31 29 56 56 56 61 0 15 138 140 208 187 37 25 75
54 86 63 10 9 31 22 47 28 16 7 29 16 29 21 0 11 -33 12 -45 1 -6 -4 -28 -14
-50 -21 -50 -17 -209 -105 -255 -143 -19 -15 -38 -28 -43 -28 -4 0 -55 -42
-113 -92 -59 -51 -126 -110 -150 -131 -85 -74 -43 -15 74 103 64 65 137 141
162 169 25 27 51 50 58 50 6 1 12 9 12 19 0 9 19 31 42 47 22 17 64 49 91 73
28 23 56 42 61 42 16 1 83 59 69 60 -28 0 -9 22 60 67 39 27 83 54 97 61 14 7
36 22 50 32 52 41 -9 18 -160 -58z m-220 -570 c0 -12 -50 -62 -62 -62 -7 0 3
16 22 35 36 37 40 40 40 27z m-285 -522 c-3 -5 -13 -10 -21 -10 -8 0 -12 5 -9
10 3 6 13 10 21 10 8 0 12 -4 9 -10z m-265 -385 c-7 -9 -15 -13 -17 -11 -7 7
7 26 19 26 6 0 6 -6 -2 -15z m-1390 -3084 c-16 -29 -30 -56 -30 -62 0 -19 -54
-112 -58 -100 -2 6 22 65 54 129 32 64 60 110 62 101 2 -9 -11 -40 -28 -68z
m-4702 -1835 c-6 -14 -17 -27 -25 -30 -11 -4 -10 1 4 24 21 36 37 40 21 6z
m-499 -243 c-29 -43 -65 -94 -79 -113 -52 -68 -121 -163 -129 -179 -5 -9 -12
-13 -16 -9 -6 6 67 124 85 138 4 3 26 34 50 69 23 35 49 71 56 80 7 9 27 36
44 59 54 75 44 38 -11 -45z m387 -30 c-10 -10 -19 5 -10 18 6 11 8 11 12 0 2
-7 1 -15 -2 -18z m-135 -55 c-25 -26 -27 -17 -4 19 9 14 19 21 21 15 2 -6 -6
-21 -17 -34z m79 -45 c0 -5 -10 -19 -21 -33 -11 -14 -18 -18 -15 -10 3 8 9 23
12 33 6 17 24 24 24 10z m-56 -88 c-9 -14 -19 -24 -21 -21 -6 6 20 46 30 46 4
0 0 -11 -9 -25z m-44 -74 c0 -12 -29 -35 -36 -28 -7 6 17 36 29 37 4 0 7 -4 7
-9z m-268 -183 c-16 -24 -40 -63 -52 -88 -13 -25 -50 -85 -84 -134 -34 -49
-65 -96 -71 -104 -66 -104 -286 -432 -289 -432 -2 0 -2 9 1 20 3 11 9 20 14
20 5 0 9 5 9 11 0 6 13 29 28 52 16 23 42 67 59 97 48 89 149 254 189 312 51
73 150 207 179 243 14 17 25 33 25 38 0 4 5 7 10 7 6 0 -2 -19 -18 -42z m957
-1941 c1 -10 -3 -15 -9 -12 -5 3 -10 21 -9 38 0 27 2 29 9 12 5 -11 9 -28 9
-38z m34 -352 c11 -85 39 -220 48 -229 5 -6 9 -27 9 -47 0 -21 5 -41 10 -44 6
-3 10 -21 10 -38 1 -36 20 -120 44 -189 9 -26 15 -50 14 -55 -3 -13 23 -126
35 -151 7 -15 7 -26 0 -33 -12 -12 -93 145 -93 179 0 12 -4 23 -9 26 -5 3 -11
20 -14 38 -3 18 -11 56 -17 83 -35 160 -60 341 -60 440 0 82 14 94 23 20z
m241 -777 c18 -35 20 -48 7 -48 -5 0 -14 14 -20 31 -20 57 -12 67 13 17z m-35
-100 c33 -92 34 -98 24 -98 -14 0 -53 78 -53 105 0 13 -4 27 -10 30 -15 9 -12
25 4 25 7 0 23 -27 35 -62z m133 -359 c35 -71 58 -123 55 -126 -10 -10 -97
131 -97 157 0 22 25 4 42 -31z"/>
<path d="M17119 16463 c-13 -15 -12 -15 9 -4 23 12 28 21 13 21 -5 0 -15 -7
-22 -17z"/>
</g>
</svg>
